PathFileType	4	(X/Y/Z)	RBDS002\RBDS002runT35.trc
DataRate	CameraRate	NumFrames	NumMarkers	Units	OrigDataRate	OrigDataStartFrame	OrigNumFrames
150.000000	150.000000	4	33	mm	150.000000	2812	4500
Frame#	Time	L.ASIS			L.Heel.Bottom			L.Heel.Lateral			L.Heel.Top			L.Iliac.Crest			L.MT1			L.MT5			L.PSIS			L.Shank.Bottom.Lateral			L.Shank.Bottom.Medial			L.Shank.Top.Lateral			L.Shank.Top.Medial			L.Thigh.Bottom.Lateral			L.Thigh.Bottom.Medial			L.Thigh.Top.Lateral			L.Thigh.Top.Medial			R.ASIS			R.ASY			R.Heel.Bottom			R.Heel.Lateral			R.Heel.Top			R.Iliac.Crest			R.MT1			R.MT5			R.PSIS			R.Shank.Bottom.Lateral			R.Shank.Bottom.Medial			R.Shank.Top.Lateral			R.Shank.Top.Medial			R.Thigh.Bottom.Lateral			R.Thigh.Bottom.Medial			R.Thigh.Top.Lateral			R.Thigh.Top.Medial			
		X1	Y1	Z1	X2	Y2	Z2	X3	Y3	Z3	X4	Y4	Z4	X5	Y5	Z5	X6	Y6	Z6	X7	Y7	Z7	X8	Y8	Z8	X9	Y9	Z9	X10	Y10	Z10	X11	Y11	Z11	X12	Y12	Z12	X13	Y13	Z13	X14	Y14	Z14	X15	Y15	Z15	X16	Y16	Z16	X17	Y17	Z17	X18	Y18	Z18	X19	Y19	Z19	X20	Y20	Z20	X21	Y21	Z21	X22	Y22	Z22	X23	Y23	Z23	X24	Y24	Z24	X25	Y25	Z25	X26	Y26	Z26	X27	Y27	Z27	X28	Y28	Z28	X29	Y29	Z29	X30	Y30	Z30	X31	Y31	Z31	X32	Y32	Z32	X33	Y33	Z33	

2813	18.74666666666667	2216.885736391899	1053.801905600837	923.148992263968	1513.185113778216	361.7975073722756	992.5241617719546	1523.151366390747	332.4756875910096	944.832509016284	1562.553739894209	365.1048760743344	980.4149642572199	2167.539893153255	1152.337778651627	869.2732485733052	1596.741790191146	148.1044019257119	1026.912158154764	1554.895948607612	168.076589289407	922.2327294195437	2037.032040160039	1119.154086536809	968.6429592567213	1638.148869792214	357.1625817375533	918.8265931780576	1616.143476589633	385.4339079873194	956.0537002965165	1690.451559258215	416.272640755049	900.3849125606806	1670.529432380007	447.925622231525	938.3444004555628	1951.248496405443	668.8294440013916	881.0579365331021	1907.336928992426	690.3886821982865	937.0200369977454	1980.857981608491	774.7374139305539	869.4412607486972	1943.576323048506	793.828126191401	923.8276794565116	2213.619506323412	1077.845617082393	1126.340339038736	2560.375744052809	214.1201596025629	1064.154524308339	2396.872929235824	106.5891404924126	1047.396786672418	2416.77189807006	119.6575570853732	1088.610796718702	2394.49525188881	157.434160436164	1056.416474073168	2113.562378568033	1166.615653087925	1172.52545129318	2615.344478611856	193.0429367196902	1014.217352917147	2591.488113210369	156.6207998710647	1117.336384040461	2030.069156752921	1118.322720244434	1058.130083995786	2418.217161447466	266.1385161918008	1122.133256965672	2377.883777716072	261.5767907413683	1085.221085287666	2389.088405561586	339.3875454606168	1141.600434301513	2351.067164593537	335.0014405918285	1103.076611856276	2295.59009580958	689.7623102457745	1163.600539503309	2241.622691008313	662.5013603333811	1121.720489020751	2230.981468485915	775.8077093209978	1188.293682619068	2178.944742501124	748.5295943817966	1150.21338071792	
2814	18.75333333333333	2216.650492359136	1054.218364371684	921.8083182015124	1508.664774409893	375.7828750503185	991.5278764340856	1518.165742909964	346.3454237216104	943.7974219261266	1558.219377344574	377.5947418045077	980.0827393563799	2165.139229059105	1153.152355415643	868.6002411520168	1585.189904451632	159.7911105288186	1026.331072916168	1545.125954680117	181.4064014343319	921.1624090627635	2036.736020375213	1118.829181252671	968.8122031712677	1634.308506910623	366.4719709339278	918.7740918357853	1613.171084446374	395.89200512787	955.6638682372264	1689.104180294345	423.3219027838716	900.5005093641954	1670.239675799863	455.9938874774614	938.068694935804	1956.33170975888	665.7779436122713	881.6168097231749	1912.237839872547	687.2867515408262	937.4044410232415	1984.893341756106	771.8263982537356	869.0778316483847	1947.208123470553	791.0242119264022	923.158252318215	2214.206170206209	1077.280250107857	1125.011980877002	2565.069444929864	215.3430171884783	1060.991114407913	2403.256646057227	104.9026336333908	1046.413336429435	2423.652011313893	117.9954419955917	1087.339551891623	2400.0674320847	155.6270006119809	1055.851709859552	2114.363105653068	1164.4495068024	1172.682852291577	2619.682449109797	195.9909197999675	1009.865977727791	2598.328461472988	157.9299079258192	1113.207265250455	2030.118981348378	1117.77898459207	1058.348427643426	2422.104496075752	264.5804314277121	1121.09032614143	2381.683234212524	259.3851313333046	1084.281119625516	2391.563038033541	337.1343631458242	1141.015417775347	2353.450742235552	332.1777265218086	1102.695603639841	2293.146441911252	686.424497895277	1164.479614758276	2239.45647287115	660.271779122129	1121.514522810495	2229.247045404244	772.8583993187357	1189.364141740155	2177.314581404608	746.6424847666043	1150.30433761449	
2815	18.76	2216.410507948694	1054.119806484374	920.4878017495066	1505.372641728374	389.8767935514824	990.3593552596368	1514.428700966111	360.2087568736357	942.6581968183029	1555.08587315752	390.103176820483	979.6199082069688	2162.633389036697	1153.400853192291	867.8858598574545	1574.444551107761	171.7790327384248	1026.002490232968	1536.369780377907	194.8670364802807	920.218910685719	2036.43079173922	1117.844237462955	968.9854336577911	1631.52996007945	375.5540274390904	918.6983320282933	1611.290885078746	406.1807672818379	955.1577673675997	1688.782243115449	429.9682714691729	900.5548339952489	1671.011268246684	463.7102174255983	937.6597241148618	1962.064146157172	661.7832302885946	882.1310729985171	1917.776360110391	683.1962289381044	937.7489495634552	1989.348630920551	768.0028707716406	868.5647523419756	1951.243192127869	787.2808321301766	922.3692908726499	2214.701187857836	1076.371726611544	1123.711735313129	2567.286837101127	215.0916131056258	1058.15459714605	2406.292929229976	103.3483694555034	1045.298617805589	2427.184999389683	116.3408893166271	1085.980754860417	2402.769508354183	153.9435681818398	1055.088225476329	2115.270303555957	1161.690356604706	1173.008602994574	2621.392089766822	196.8035992155887	1006.047620991499	2601.896309545411	157.5484887280657	1109.509434679674	2030.046351138152	1116.638951073479	1058.597400312828	2423.826480215204	262.7573634562068	1119.947197415477	2383.416192916638	257.1778141655024	1083.138803827633	2392.400611836409	334.8228261556096	1140.188322384892	2354.266854512261	329.5185573710785	1102.007426402166	2291.245660387287	683.2980936535656	1165.164613088843	2237.780641092163	657.9992734283594	1121.357640181318	2227.918656737199	769.9958846161019	1190.260498695493	2176.067742831631	744.6441850761252	1150.404336942604	
2816	18.76666666666667	2216.201930350657	1053.498859761555	919.2551060346075	1503.469120648192	404.0149912842267	989.0500011889969	1512.066217437462	373.9974105133528	941.4441104364126	1553.300272405512	402.5551540707377	979.0165018778902	2160.127161007029	1153.061932290508	867.1566972669124	1564.664195851061	183.980174261142	1025.865792925918	1528.720729958267	208.3572740667762	919.4006199676497	2036.146520877816	1116.200492984515	969.132792062062	1629.88739325397	384.3485389023944	918.5846458440365	1610.580256013471	416.2144254436027	954.5270984372477	1689.514154347258	436.1805622153138	900.5306918872732	1672.867936288494	471.0208440420798	937.1079499882143	1968.283728820091	656.9908235236193	882.621124689523	1923.83016872338	678.238711406717	938.1194149330696	1994.080933311826	763.407259924272	867.9902669057394	1955.587741360483	782.7073581749439	921.5863767029189	2215.08868806839	1075.162599213993	1122.523779760897	2567.121166344217	213.2461675263067	1055.747551652544	2406.09719128505	101.6589806593667	1044.039519790244	2427.447633554636	114.4195317263001	1084.545234015025	2402.668145877773	152.1351213485407	1054.130137767675	2116.190161241456	1158.50111814406	1173.441141330635	2620.651197311794	195.396381164272	1002.88718453441	2602.288794488445	155.3242537674621	1106.360183373042	2029.876194692408	1114.912368578236	1058.835909470773	2423.432966137533	260.5213339041737	1118.744565657035	2383.106704228772	254.8035288825333	1081.855165530355	2391.637529619708	332.3249239395699	1139.168250874757	2353.529361107812	326.8932367651184	1101.064942392139	2289.848918945633	680.3989703072838	1165.593513696251	2236.524381614559	655.6733025161517	1121.2460133839	2226.968404612081	767.271420030362	1190.886182179926	2175.152064383783	742.5434789878086	1150.483168987826	
